<svg width="512" height="512" viewBox="0 0 512 512" xmlns="http://www.w3.org/2000/svg">
  <defs>
    <radialGradient id="bg1" cx="40%" cy="35%" r="65%">
      <stop offset="0%" stop-color="#3d2000"/>
      <stop offset="100%" stop-color="#0d0a05"/>
    </radialGradient>
  </defs>
  <rect width="512" height="512" rx="110" fill="url(#bg1)"/>
  <rect width="512" height="512" rx="110" fill="none" stroke="#F47B20" stroke-width="7"/>
  <rect x="18" y="18" width="476" height="476" rx="94" fill="none" stroke="#F47B20" stroke-width="2" stroke-opacity="0.3"/>
  <circle cx="256" cy="222" r="118" fill="none" stroke="#F47B20" stroke-width="2" stroke-opacity="0.4"/>
  <circle cx="256" cy="222" r="110" fill="none" stroke="#F47B20" stroke-width="5" stroke-opacity="0.9"/>
  <circle cx="256" cy="222" r="104" fill="#1a0e00" fill-opacity="0.9"/>
  <line x1="256" y1="112" x2="256" y2="136" stroke="#F47B20" stroke-width="7" stroke-linecap="round"/>
  <line x1="256" y1="308" x2="256" y2="332" stroke="#F47B20" stroke-width="4" stroke-linecap="round" stroke-opacity="0.6"/>
  <line x1="146" y1="222" x2="170" y2="222" stroke="#F47B20" stroke-width="4" stroke-linecap="round" stroke-opacity="0.6"/>
  <line x1="342" y1="222" x2="366" y2="222" stroke="#F47B20" stroke-width="4" stroke-linecap="round" stroke-opacity="0.6"/>
  <line x1="178" y1="154" x2="192" y2="168" stroke="#F47B20" stroke-width="3" stroke-linecap="round" stroke-opacity="0.4"/>
  <line x1="334" y1="154" x2="320" y2="168" stroke="#F47B20" stroke-width="3" stroke-linecap="round" stroke-opacity="0.4"/>
  <line x1="178" y1="290" x2="192" y2="276" stroke="#F47B20" stroke-width="3" stroke-linecap="round" stroke-opacity="0.4"/>
  <line x1="334" y1="290" x2="320" y2="276" stroke="#F47B20" stroke-width="3" stroke-linecap="round" stroke-opacity="0.4"/>
  <polygon points="256,130 270,218 256,205 242,218" fill="#F47B20"/>
  <polygon points="256,130 263,182 256,174 249,182" fill="#FFB060" fill-opacity="0.5"/>
  <polygon points="256,314 270,226 256,239 242,226" fill="#fdf8f2" fill-opacity="0.85"/>
  <circle cx="256" cy="222" r="20" fill="#F47B20" fill-opacity="0.25"/>
  <circle cx="256" cy="222" r="14" fill="#F47B20"/>
  <circle cx="256" cy="222" r="7" fill="#1a0e00"/>
  <text x="256" y="108" text-anchor="middle" fill="#F47B20" font-size="22" font-weight="700" font-family="Georgia,serif" letter-spacing="3">N</text>
  <rect x="76" y="356" width="360" height="78" rx="22" fill="#F47B20"/>
  <rect x="76" y="356" width="360" height="39" rx="22" fill="white" fill-opacity="0.08"/>
  <text x="256" y="390" text-anchor="middle" fill="white" font-size="32" font-weight="900" font-family="Georgia,serif" letter-spacing="2">Pusulam</text>
  <text x="256" y="418" text-anchor="middle" fill="rgba(255,255,255,0.75)" font-size="16" font-family="sans-serif" letter-spacing="5">ÖĞRENCİ</text>
  <circle cx="100" cy="80" r="4" fill="#F47B20" fill-opacity="0.5"/>
  <circle cx="420" cy="72" r="3" fill="#F47B20" fill-opacity="0.4"/>
  <circle cx="430" cy="420" r="4" fill="#F47B20" fill-opacity="0.3"/>
  <circle cx="82" cy="415" r="3" fill="#F47B20" fill-opacity="0.4"/>
</svg>
